<mxfile host="app.diagrams.net" modified="2024-05-30T01:00:00.178Z" agent="Mozilla/5.0 (X11; Linux x86_64) AppleWebKit/537.36 (KHTML, like Gecko) Chrome/125.0.0.0 Safari/537.36" version="24.4.10" etag="wcywDdkWCoyFM4LdxNya" type="github">
  <diagram name="PÃ¡gina-1" id="1KiXCMf9EeMSabRTPSVu">
    <mxGraphModel>
      <root>
        <mxCell id="0" />
        <mxCell id="1" parent="0" />
      </root>
    </mxGraphModel>
  </diagram>
</mxfile>
